<?xml version="1.0" encoding="utf-8"?>
<svg xmlns="http://www.w3.org/2000/svg" xmlns:svg="http://www.w3.org/2000/svg" version="1.1" viewBox="0 0 1400 340">
	<title>The titlepage for the Standard Ebooks edition of Poetry, by William Carlos Williams</title>
	<g aria-label="POETRY">
		<path d="M 502.14181,52.807016 V 130 h 17.59064 v -28.63158 h 10.5731 c 15.06433,0 26.38597,-8.888888 26.38597,-24.795322 0,-16 -11.32164,-23.766082 -26.38597,-23.766082 z m 17.59064,34.526317 V 66.842104 h 4.95907 c 6.92397,0 13.47368,2.339181 13.47368,10.292398 0,7.859649 -6.54971,10.198831 -13.47368,10.198831 z"/>
		<path d="m 565.99707,91.356724 c 0,22.549706 16.09357,40.046786 38.92398,40.046786 22.17544,0 38.83041,-17.49708 38.83041,-40.046786 0,-22.549708 -17.40351,-39.953217 -38.83041,-39.953217 -21.23976,0 -38.92398,17.403509 -38.92398,39.953217 z m 18.99416,0 c 0,-11.508772 6.36257,-23.017544 19.92982,-23.017544 13.66082,0 19.83626,11.508772 19.83626,23.017544 0,11.508776 -5.80117,23.017546 -19.83626,23.017546 -14.40936,0 -19.92982,-11.50877 -19.92982,-23.017546 z"/>
		<path d="M 700.67689,52.807016 H 656.51315 V 130 h 44.16374 v -15.4386 h -26.5731 V 99.029239 h 25.45029 V 83.590642 H 674.10379 V 68.245613 h 26.5731 z"/>
		<path d="m 710.92397,68.245613 h 18.33918 V 130 H 746.8538 V 68.245613 h 18.33918 V 52.807016 h -54.26901 z"/>
		<path d="M 776.52777,52.807016 V 130 h 17.59064 V 99.497075 L 817.69736,130 h 22.36257 l -26.5731,-31.906433 c 9.45029,-2.994152 15.81287,-10.760234 15.81287,-22.362574 0,-15.157895 -10.85381,-22.923977 -25.16959,-22.923977 z m 17.59064,34.245615 V 66.842104 h 2.05848 c 6.64327,0 14.59649,0.467836 14.59649,10.105263 0,9.637428 -7.95322,10.105264 -14.59649,10.105264 z"/>
		<path d="m 831.76901,52.807016 28.44444,42.5731 V 130 h 17.59064 V 95.380116 l 28.44445,-42.5731 h -21.1462 L 869.00877,77.508771 852.9152,52.807016 Z"/>
	</g>
	<g aria-label="WILLIAM CARLOS WILLIAMS">
		<path d="m 179.92544,290 h 14.59649 l 16.49123,-57.89474 h -14.59649 l -9.89474,39.7193 h -0.35087 l -10.52632,-39.7193 h -9.96491 l -10.52632,39.7193 h -0.35087 l -9.89474,-39.7193 H 130.24123 L 146.73246,290 h 14.66667 l 9.26316,-32.49123 z"/>
		<path d="M 232.37062,232.10526 H 219.17764 V 290 h 13.19298 z"/>
		<path d="M 259.02632,232.10526 H 245.83334 V 290 h 33.12281 v -11.57895 h -19.92983 z"/>
		<path d="M 303.63707,232.10526 H 290.44409 V 290 h 33.1228 v -11.57895 h -19.92982 z"/>
		<path d="M 348.24782,232.10526 H 335.05484 V 290 h 13.19298 z"/>
		<path d="M 391.11405,232.10526 H 378.90352 L 355.5351,290 h 14.17544 l 4.2807,-11.57895 h 22.03509 L 400.30703,290 h 14.17544 z m 0.42105,34.73685 H 378.48247 L 384.93861,250 h 0.14035 z"/>
		<path d="m 469.53179,290 h 13.19299 l -5.19299,-57.89474 H 463.49671 L 450.6546,265.50877 437.8125,232.10526 H 423.77741 L 418.58443,290 h 13.19298 l 2.73684,-34.31579 h 0.35088 l 11.85965,33.96491 h 7.85965 l 11.85965,-33.96491 h 0.35087 z"/>
		<path d="m 545.81251,278.07018 c -13.26316,0 -19.08772,-9.26316 -19.08772,-17.05264 0,-7.71929 5.82456,-16.98245 19.08772,-16.98245 6.73684,0 11.36842,3.57895 11.36842,3.57895 l 5.61403,-11.22807 c 0,0 -6.45614,-5.33334 -19.01754,-5.33334 -16.42105,0 -31.36842,13.47369 -31.36842,30.10527 0,16.5614 15.01754,29.89473 31.36842,29.89473 12.5614,0 19.01754,-5.33333 19.01754,-5.33333 l -5.61403,-11.22807 c 0,0 -4.63158,3.57895 -11.36842,3.57895 z"/>
		<path d="M 602.3147,232.10526 H 590.10417 L 566.73575,290 h 14.17544 l 4.2807,-11.57895 h 22.03509 L 611.50768,290 h 14.17544 z m 0.42105,34.73685 H 589.68312 L 596.13926,250 h 0.14035 z"/>
		<path d="M 632.8728,232.10526 V 290 h 13.19298 V 267.12281 L 663.74999,290 h 16.77193 L 660.5921,266.07018 c 7.08772,-2.24562 11.85965,-8.07018 11.85965,-16.77193 0,-11.36842 -8.14035,-17.19299 -18.8772,-17.19299 z m 13.19298,25.68421 v -15.15789 h 1.54386 c 4.98246,0 10.94737,0.35088 10.94737,7.57895 0,7.22807 -5.96491,7.57894 -10.94737,7.57894 z"/>
		<path d="M 701.3673,232.10526 H 688.17431 V 290 h 33.12281 V 278.42105 H 701.3673 Z"/>
		<path d="m 730.1886,261.01754 c 0,16.91228 12.07018,30.03509 29.19298,30.03509 16.63158,0 29.12281,-13.12281 29.12281,-30.03509 0,-16.91228 -13.05263,-29.96491 -29.12281,-29.96491 -15.92982,0 -29.19298,13.05263 -29.19298,29.96491 z m 14.24561,0 c 0,-8.63157 4.77193,-17.26315 14.94737,-17.26315 10.24562,0 14.8772,8.63158 14.8772,17.26315 0,8.63158 -4.35088,17.26316 -14.8772,17.26316 -10.80701,0 -14.94737,-8.63158 -14.94737,-17.26316 z"/>
		<path d="m 820.65901,231.05263 c -9.33333,0 -18.87719,6.8772 -18.87719,17.68421 0,6.03509 4.07018,11.4386 11.01754,14.8772 6.8772,3.43859 13.05264,5.33333 13.05264,9.54385 0,5.40351 -5.47369,5.68422 -8.35088,5.68422 -6.45614,0 -14.17544,-6.52632 -14.17544,-6.52632 l -6.59649,11.08772 c 0,0 8.21052,7.64912 21.75438,7.64912 11.29825,0 21.82457,-4.8421 21.82457,-18.66666 0,-7.57895 -7.08772,-13.05264 -13.54386,-15.78948 -6.5965,-2.80702 -12.07018,-5.12281 -12.07018,-8.35088 0,-3.15789 2.38597,-5.19298 6.87719,-5.19298 5.96492,0 11.7193,4 11.7193,4 l 5.33334,-10.52631 c 0,0 -7.4386,-5.47369 -17.96492,-5.47369 z"/>
		<path d="m 914.05374,290 h 14.59649 l 16.49123,-57.89474 h -14.59649 l -9.89474,39.7193 h -0.35088 l -10.52631,-39.7193 h -9.96491 l -10.52632,39.7193 h -0.35088 l -9.89473,-39.7193 H 864.36953 L 880.86076,290 h 14.66666 l 9.26316,-32.49123 z"/>
		<path d="M 966.49889,232.10526 H 953.3059 V 290 h 13.19299 z"/>
		<path d="M 993.15459,232.10526 H 979.96161 V 290 h 33.12279 v -11.57895 h -19.92981 z"/>
		<path d="m 1037.7654,232.10526 h -13.193 V 290 h 33.1228 v -11.57895 h -19.9298 z"/>
		<path d="m 1082.3761,232.10526 h -13.193 V 290 h 13.193 z"/>
		<path d="m 1125.2423,232.10526 h -12.2105 L 1089.6634,290 h 14.1754 l 4.2807,-11.57895 h 22.0351 L 1134.4353,290 h 14.1754 z m 0.4211,34.73685 h -13.0527 L 1119.0669,250 h 0.1403 z"/>
		<path d="m 1203.6601,290 h 13.1929 l -5.1929,-57.89474 h -14.0351 l -12.8421,33.40351 -12.8421,-33.40351 h -14.0351 L 1152.7127,290 h 13.193 l 2.7368,-34.31579 h 0.3509 l 11.8596,33.96491 h 7.8597 l 11.8596,-33.96491 h 0.3509 z"/>
		<path d="m 1247.1009,231.05263 c -9.3333,0 -18.8772,6.8772 -18.8772,17.68421 0,6.03509 4.0702,11.4386 11.0176,14.8772 6.8772,3.43859 13.0526,5.33333 13.0526,9.54385 0,5.40351 -5.4737,5.68422 -8.3509,5.68422 -6.4561,0 -14.1754,-6.52632 -14.1754,-6.52632 l -6.5965,11.08772 c 0,0 8.2105,7.64912 21.7544,7.64912 11.2982,0 21.8245,-4.8421 21.8245,-18.66666 0,-7.57895 -7.0877,-13.05264 -13.5438,-15.78948 -6.5965,-2.80702 -12.0702,-5.12281 -12.0702,-8.35088 0,-3.15789 2.386,-5.19298 6.8772,-5.19298 5.9649,0 11.7193,4 11.7193,4 l 5.3333,-10.52631 c 0,0 -7.4386,-5.47369 -17.9649,-5.47369 z"/>
	</g>
</svg>
